<svg width="10" height="5" viewBox="0 0 10 5" fill="none" xmlns="http://www.w3.org/2000/svg">
<path d="M-2.87814e-08 0.658441C0.0990553 0.409055 0.338439 0.258018 0.557186 0.0964435C0.73466 -0.0352747 1.02357 -0.022981 1.20724 0.103468C1.25057 0.133325 1.28978 0.166693 1.32899 0.200062C2.52385 1.21517 3.71664 2.23203 4.90943 3.24714C4.93625 3.26997 4.95483 3.29983 4.98165 3.33144C5.02912 3.2928 5.05595 3.27173 5.08277 3.2489C6.28795 2.22501 7.48899 1.20112 8.69416 0.177231C8.90672 -0.00541819 9.17293 -0.0598617 9.38755 0.075369C9.58566 0.200062 9.76314 0.358124 9.91378 0.524967C10.0541 0.681273 10.0128 0.893778 9.86425 1.04833C9.84155 1.07116 9.81679 1.09399 9.79203 1.11506C8.33922 2.35146 6.88434 3.58961 5.43153 4.826C5.21278 5.01041 4.95895 5.0508 4.72576 4.93489C4.66798 4.90679 4.61639 4.8664 4.56686 4.826C3.11199 3.58961 1.65711 2.35321 0.208428 1.11331C0.119691 1.03779 0.0680999 0.932415 -3.67652e-08 0.84109C-3.40784e-08 0.779622 -3.13915e-08 0.718153 -2.87814e-08 0.658441Z" fill="#252525"/>
</svg>
